<?xml version="1.0" encoding="utf-8"?>
<!-- Generator: Adobe Illustrator 13.0.0, SVG Export Plug-In . SVG Version: 6.00 Build 14948)  -->
<!DOCTYPE svg PUBLIC "-//W3C//DTD SVG 1.1//EN" "http://www.w3.org/Graphics/SVG/1.1/DTD/svg11.dtd">
<svg version="1.1" id="Layer_1" xmlns="http://www.w3.org/2000/svg" xmlns:xlink="http://www.w3.org/1999/xlink" x="0px" y="0px"
	 width="150px" height="57.3px" viewBox="0 0 150 57.3" enable-background="new 0 0 150 57.3" xml:space="preserve">
<g>
	<defs>
		<rect id="SVGID_1_" x="-144.5" y="-344.5" width="800" height="800"/>
	</defs>
	<clipPath id="SVGID_2_">
		<use xlink:href="#SVGID_1_"  overflow="visible"/>
	</clipPath>
	<path clip-path="url(#SVGID_2_)" d="M141,12.7c-9.4-0.7-13.9-1.7-23.9-1.7c-10,0-25.8,0.1-28.5,2.8c-2.7,2.7-5.9,3.5-11.5,3.5
		c-5.6,0-7.5-0.8-10.2-3.5C64.2,11.1,48.4,11,38.4,11c-10,0-14.6,1-23.9,1.7c-9.4,0.7-6,3.6-6,5.5c0,1.9,1.2,1.9,3.5,4.1
		c2.3,2.2,2.6,8.8,2.6,8.8c1.5,11.5,5.3,17.6,11.4,20.7c0.7,0.1,1.2,0.4,1.7,0.8c3.5,1.4,7.7,1.9,12.5,1.9c14.3,0,17.5-3.2,21.6-6.4
		c4.1-3.3,7.3-14.8,8.6-18.9c1.3-4.1,7.5-4.5,7.5-4.5s6.2,0.4,7.5,4.5c1.3,4.1,4.5,15.6,8.6,18.9c4.1,3.3,7.3,6.4,21.6,6.4
		c5.1,0,9.5-0.6,13.2-2.2c0.6-0.6,1.3-1,2.2-1.1c5.3-3.3,8.8-9.3,10.1-20c0,0,0.2-6.6,2.6-8.8c2.3-2.2,3.5-2.2,3.5-4.1
		C147.1,16.3,150.4,13.4,141,12.7z M65.7,35.5c-1.9,8.2-7.7,17.3-24.8,16.8c-17.1-0.5-18.6-6.6-20.1-9.9c-1.5-3.3-3.6-14.8-3.7-20.1
		c-0.1-5.3,3.7-6.3,3.7-6.3c9.3-3.1,30.4-2.2,39,0.4C68.3,19.1,67.5,27.3,65.7,35.5z M135.2,42.4c-1.5,3.3-3,9.5-20.1,9.9
		C98,52.8,92.2,43.8,90.3,35.5c-1.9-8.2-2.6-16.4,6-19.1c8.6-2.6,29.7-3.5,39-0.4c0,0,3.8,1,3.7,6.3
		C138.9,27.6,136.8,39.1,135.2,42.4z"/>
</g>
<text transform="matrix(1 0 0 1 35.9404 48.6577)" fill="#231F20" font-family="'NuevaStd-Bold'" font-size="46.6386">!</text>
<text transform="matrix(1 0 0 1 95.4805 49.6133)" fill="#231F20" font-family="'NuevaStd-Bold'" font-size="67.5499">=</text>
<text transform="matrix(0.9981 6.094301e-02 -6.094301e-02 0.9981 66.481 111.1396)" font-family="'PirulenRg-Regular'" font-size="16.965"> </text>
</svg>
